<?xml version="1.0" encoding="UTF-8"?>
<svg width="362px" height="98px" viewBox="0 0 362 98" version="1.1" xmlns="http://www.w3.org/2000/svg" xmlns:xlink="http://www.w3.org/1999/xlink">
    <!-- Generator: Sketch 47.1 (45422) - http://www.bohemiancoding.com/sketch -->
    <title>Group</title>
    <desc>Created with Sketch.</desc>
    <defs></defs>
    <g id="Page-1" stroke="none" stroke-width="1" fill="none" fill-rule="evenodd">
        <g id="Group" fill="#FFFFFE">
            <path d="M70.281,41.987 L40.014,41.987 C39.233,41.987 38.6,42.621 38.6,43.402 L38.6,58.2 C38.6,58.981 39.233,59.617 40.014,59.617 L51.821,59.617 L51.821,78.002 C51.821,78.002 49.17,78.906 41.84,78.906 C33.193,78.906 21.113,75.746 21.113,49.183 C21.113,22.613 33.692,19.118 45.501,19.118 C55.724,19.118 60.127,20.917 62.93,21.785 C63.811,22.055 64.625,21.178 64.625,20.396 L68.001,6.099 C68.001,5.732 67.877,5.293 67.461,4.994 C66.323,4.182 59.38,0.297 41.84,0.297 C21.635,0.297 0.908,8.893 0.908,50.219 C0.908,91.545 24.638,97.703 44.635,97.703 C61.192,97.703 71.236,90.628 71.236,90.628 C71.65,90.399 71.695,89.82 71.695,89.556 L71.695,43.402 C71.695,42.621 71.062,41.987 70.281,41.987" id="Fill-3"></path>
            <path d="M226.265,5.249 C226.265,4.461 225.641,3.826 224.859,3.826 L207.817,3.826 C207.039,3.826 206.406,4.461 206.406,5.249 C206.406,5.252 206.411,38.183 206.411,38.183 L179.846,38.183 L179.846,5.249 C179.846,4.461 179.22,3.826 178.44,3.826 L161.399,3.826 C160.624,3.826 159.991,4.461 159.991,5.249 L159.991,94.426 C159.991,95.213 160.624,95.852 161.399,95.852 L178.44,95.852 C179.22,95.852 179.846,95.213 179.846,94.426 L179.846,56.281 L206.411,56.281 C206.411,56.281 206.364,94.423 206.364,94.426 C206.364,95.213 206.996,95.852 207.776,95.852 L224.858,95.852 C225.639,95.852 226.263,95.213 226.265,94.426 L226.265,5.249" id="Fill-4"></path>
            <path d="M102.44,16.95 C102.44,10.814 97.521,5.855 91.451,5.855 C85.387,5.855 80.463,10.814 80.463,16.95 C80.463,23.081 85.387,28.054 91.451,28.054 C97.521,28.054 102.44,23.081 102.44,16.95" id="Fill-5"></path>
            <path d="M101.222,75.614 C101.222,73.329 101.222,34.45 101.222,34.45 C101.222,33.668 100.591,33.029 99.812,33.029 L82.823,33.029 C82.044,33.029 81.347,33.833 81.347,34.614 C81.347,34.614 81.347,84.148 81.347,93.591 C81.347,95.324 82.427,95.84 83.824,95.84 C83.824,95.84 91.076,95.84 99.13,95.84 C100.81,95.84 101.222,95.015 101.222,93.563 C101.222,90.402 101.222,78.018 101.222,75.614" id="Fill-6"></path>
            <path d="M291.032,33.163 L274.121,33.163 C273.346,33.163 272.714,33.803 272.714,34.59 L272.714,78.315 C272.714,78.315 268.417,81.459 262.319,81.459 C256.222,81.459 254.604,78.692 254.604,72.722 C254.604,66.743 254.604,34.59 254.604,34.59 C254.604,33.803 253.974,33.163 253.197,33.163 L236.033,33.163 C235.259,33.163 234.624,33.803 234.624,34.59 C234.624,34.59 234.624,57.875 234.624,75.608 C234.624,93.344 244.508,97.683 258.105,97.683 C269.261,97.683 278.255,91.519 278.255,91.519 C278.255,91.519 278.683,94.768 278.877,95.152 C279.07,95.536 279.575,95.925 280.121,95.925 L291.04,95.876 C291.814,95.876 292.449,95.236 292.449,94.452 L292.443,34.59 C292.443,33.803 291.812,33.163 291.032,33.163" id="Fill-7"></path>
            <path d="M330.584,81.405 C324.718,81.227 320.739,78.564 320.739,78.564 L320.739,50.324 C320.739,50.324 324.664,47.918 329.48,47.488 C335.57,46.942 341.438,48.782 341.438,63.31 C341.438,78.629 338.79,81.652 330.584,81.405 Z M337.254,31.16 C327.649,31.16 321.116,35.445 321.116,35.445 L321.116,5.249 C321.116,4.461 320.486,3.826 319.71,3.826 L302.619,3.826 C301.842,3.826 301.211,4.461 301.211,5.249 L301.211,94.426 C301.211,95.213 301.842,95.852 302.621,95.852 C302.623,95.852 314.475,95.852 314.479,95.852 C315.013,95.852 315.417,95.577 315.716,95.096 C316.011,94.616 316.436,90.983 316.436,90.983 C316.436,90.983 323.424,97.606 336.653,97.606 C352.185,97.606 361.092,89.728 361.092,62.24 C361.092,34.752 346.866,31.16 337.254,31.16 L337.254,31.16 Z" id="Fill-8"></path>
            <path d="M150.202,33.021 L137.418,33.021 C137.418,33.021 137.399,16.137 137.399,16.133 C137.399,15.493 137.069,15.174 136.33,15.174 L118.91,15.174 C118.232,15.174 117.869,15.472 117.869,16.123 L117.869,33.575 C117.869,33.575 109.139,35.683 108.548,35.852 C107.961,36.023 107.528,36.565 107.528,37.212 L107.528,48.179 C107.528,48.968 108.158,49.604 108.937,49.604 L117.869,49.604 C117.869,49.604 117.869,61.074 117.869,75.988 C117.869,95.585 131.615,97.51 140.89,97.51 C145.129,97.51 150.199,96.148 151.036,95.84 C151.542,95.653 151.836,95.129 151.836,94.56 L151.851,82.496 C151.851,81.71 151.186,81.072 150.438,81.072 C149.692,81.072 147.787,81.376 145.825,81.376 C139.545,81.376 137.418,78.456 137.418,74.677 C137.418,70.9 137.417,49.604 137.417,49.604 L150.202,49.604 C150.981,49.604 151.612,48.968 151.612,48.179 L151.612,34.442 C151.612,33.655 150.981,33.021 150.202,33.021" id="Fill-9"></path>
        </g>
    </g>
</svg>