<?xml version="1.0" encoding="UTF-8"?>
<svg width="289px" height="196px" viewBox="0 0 289 196" version="1.1" xmlns="http://www.w3.org/2000/svg" xmlns:xlink="http://www.w3.org/1999/xlink">
    <!-- Generator: Sketch 47.1 (45422) - http://www.bohemiancoding.com/sketch -->
    <title>Combined-Shape</title>
    <desc>Created with Sketch.</desc>
    <defs></defs>
    <g id="Page-1" stroke="none" stroke-width="1" fill="none" fill-rule="evenodd">
        <path d="M80.1234944,63.9814131 L80.1234944,61.0885249 C80.1234944,53.9119369 75.0053075,49.1275449 65.8259508,49.1275449 C56.9247563,49.1275449 50.5826553,54.4682615 50.5826553,62.3680716 L50.5826553,74.9410088 C50.5826553,82.8408188 56.7022265,88.237168 65.9372157,88.237168 C74.1151881,88.237168 80.0678619,83.7865707 80.0678619,76.6656152 L80.0678619,73.3276673 L69.7202233,73.3276673 L69.7202233,76.0536581 C69.7202233,78.1120593 68.4406766,79.3359735 66.1041131,79.3359735 C64.1013444,79.3359735 62.4323704,78.2233242 62.4323704,75.8867607 L62.4323704,61.700482 C62.4323704,59.0857562 63.7675496,58.0287393 66.1041131,58.0287393 C68.4406766,58.0287393 69.7758558,59.0857562 69.7758558,61.700482 L69.7758558,63.9814131 L80.1234944,63.9814131 Z M114.832521,74.9966412 L114.832521,62.3124392 C114.832521,54.2457317 108.323522,49.1275449 99.3666949,49.1275449 C90.3542355,49.1275449 83.8452371,54.2457317 83.8452371,62.3124392 L83.8452371,74.9966412 C83.8452371,83.0077162 90.3542355,88.237168 99.3666949,88.237168 C108.323522,88.237168 114.832521,83.0077162 114.832521,74.9966412 L114.832521,74.9966412 Z M102.982806,75.7198633 C102.982806,77.7782645 101.758891,79.3359735 99.3666949,79.3359735 C96.9188664,79.3359735 95.6949522,77.7782645 95.6949522,75.7198633 L95.6949522,61.700482 C95.6949522,59.5864484 96.9188664,58.0287393 99.3666949,58.0287393 C101.758891,58.0287393 102.982806,59.5864484 102.982806,61.700482 L102.982806,75.7198633 Z M149.819709,73.9396244 L149.819709,64.0370456 C149.819709,55.8034407 145.591642,50.1289293 135.021473,50.1289293 L119.277485,50.1289293 L119.277485,87.1801511 L135.021473,87.1801511 C145.591642,87.1801511 149.819709,82.1732292 149.819709,73.9396244 L149.819709,73.9396244 Z M138.136891,74.2177867 C138.136891,77.3888372 136.801712,78.3902216 134.075721,78.3902216 L130.904671,78.3902216 L130.904671,58.8632263 L134.075721,58.8632263 C136.801712,58.8632263 138.136891,59.8646107 138.136891,63.0356612 L138.136891,74.2177867 Z M165.891859,87.1801511 L165.891859,50.1289293 L154.264674,50.1289293 L154.264674,87.1801511 L165.891859,87.1801511 Z M201.936064,87.1801511 L201.936064,50.1289293 L191.47716,50.1289293 L191.47716,67.2637286 L189.029332,63.2581911 L181.018257,50.1289293 L171.060046,50.1289293 L171.060046,87.1801511 L181.574582,87.1801511 L181.574582,70.2678817 L184.133675,74.3290516 L192.311647,87.1801511 L201.936064,87.1801511 Z M145.937164,195.970559 C66.4920934,197.276394 0.920218407,154.904068 0.00938899089,100.380804 C-0.8922212,45.8586884 63.2565394,1.33723103 142.695488,0.0291046678 C222.134018,-1.27018654 287.697894,41.0896163 288.633902,95.6266121 C289.519289,150.141123 225.348745,194.664499 145.937164,195.970559 Z M225.908024,61.811747 L225.908024,64.092678 L236.366927,64.092678 L236.366927,61.1997898 C236.366927,54.0232018 230.748048,49.1275449 221.791222,49.1275449 C213.112557,49.1275449 206.381029,53.9119369 206.381029,62.2568067 L206.381029,75.1079062 C206.381029,82.1732292 211.666113,88.237168 220.678572,88.237168 C224.962272,88.237168 228.800912,86.1787667 230.748048,82.7851864 L232.13886,87.1801511 L236.366927,87.1801511 L236.366927,68.5432753 L222.681341,68.5432753 L222.681341,74.1621542 L226.297451,74.1621542 L226.297451,75.9980256 C226.297451,78.0564268 224.628477,79.3359735 222.291914,79.3359735 C220.289145,79.3359735 218.230744,78.1676917 218.230744,75.8311282 L218.230744,61.811747 C218.230744,59.1970211 219.73282,58.0287393 222.069384,58.0287393 C224.405947,58.0287393 225.908024,59.1970211 225.908024,61.811747 Z M76.3961192,130.019712 C76.3961192,118.670689 58.9831576,119.060117 58.9831576,114.275725 C58.9831576,112.384221 60.0958069,111.382836 62.2098405,111.382836 C64.8245664,111.382836 65.9928482,112.884913 65.9928482,115.110212 L65.9928482,116.445391 L76.0623244,116.445391 L76.0623244,114.442622 C76.0623244,107.488564 70.99977,102.871069 62.1542081,102.871069 C53.3086461,102.871069 48.0791944,108.044888 48.0791944,114.553887 C48.0791944,125.958542 65.3808911,125.736012 65.3808911,130.631669 C65.3808911,132.467541 64.4907716,133.468925 61.5978834,133.468925 C58.9831576,133.468925 57.481081,132.189378 57.481081,129.685917 L57.481081,128.295106 L47.4116048,128.295106 L47.4116048,129.96408 C47.4116048,137.474463 52.4741591,141.980692 62.2098405,141.980692 C71.7229921,141.980692 76.3961192,136.473078 76.3961192,130.019712 Z M107.432789,112.996178 L107.432789,103.872454 L77.9475821,103.872454 L77.9475821,112.996178 L86.8487766,112.996178 L86.8487766,140.923675 L98.4759618,140.923675 L98.4759618,112.996178 L107.432789,112.996178 Z M140.705013,128.740166 L140.705013,116.055963 C140.705013,107.989256 134.196014,102.871069 125.239187,102.871069 C116.226728,102.871069 109.717729,107.989256 109.717729,116.055963 L109.717729,128.740166 C109.717729,136.751241 116.226728,141.980692 125.239187,141.980692 C134.196014,141.980692 140.705013,136.751241 140.705013,128.740166 Z M128.855297,129.463388 C128.855297,131.521789 127.631383,133.079498 125.239187,133.079498 C122.791359,133.079498 121.567445,131.521789 121.567445,129.463388 L121.567445,115.444006 C121.567445,113.329973 122.791359,111.772264 125.239187,111.772264 C127.631383,111.772264 128.855297,113.329973 128.855297,115.444006 L128.855297,129.463388 Z M176.025996,140.923675 L176.025996,103.872454 L165.567092,103.872454 L165.567092,121.007253 L163.119264,117.001715 L155.108189,103.872454 L145.149977,103.872454 L145.149977,140.923675 L155.664513,140.923675 L155.664513,124.011406 L158.223607,128.072576 L166.401579,140.923675 L176.025996,140.923675 Z M207.619603,140.923675 L207.619603,131.466156 L192.821368,131.466156 L192.821368,125.23532 L202.501417,125.23532 L202.501417,118.781954 L192.821368,118.781954 L192.821368,112.718016 L207.619603,112.718016 L207.619603,103.872454 L181.194182,103.872454 L181.194182,140.923675 L207.619603,140.923675 Z M239.167425,130.019712 C239.167425,118.670689 221.754463,119.060117 221.754463,114.275725 C221.754463,112.384221 222.867112,111.382836 224.981146,111.382836 C227.595872,111.382836 228.764154,112.884913 228.764154,115.110212 L228.764154,116.445391 L238.83363,116.445391 L238.83363,114.442622 C238.83363,107.488564 233.771076,102.871069 224.925514,102.871069 C216.079952,102.871069 210.8505,108.044888 210.8505,114.553887 C210.8505,125.958542 228.152197,125.736012 228.152197,130.631669 C228.152197,132.467541 227.262077,133.468925 224.369189,133.468925 C221.754463,133.468925 220.252387,132.189378 220.252387,129.685917 L220.252387,128.295106 L210.18291,128.295106 L210.18291,129.96408 C210.18291,137.474463 215.245465,141.980692 224.981146,141.980692 C234.494298,141.980692 239.167425,136.473078 239.167425,130.019712 Z" id="Combined-Shape" fill="#FFFFFF" fill-rule="nonzero"></path>
    </g>
</svg>